HIERARCHY
ROOT Hips
{
	OFFSET 0.000000 0.000000 0.000000
	CHANNELS 6 Xposition Yposition Zposition Xrotation Yrotation Zrotation
	JOINT LeftUpLeg_virtual
	{
		OFFSET 0.000000 0.000000 0.000000
		CHANNELS 3 Xrotation Yrotation Zrotation
		JOINT LeftUpLeg
		{
			OFFSET 11.394100 -6.187798 -0.413800
			CHANNELS 3 Xrotation Yrotation Zrotation
			JOINT LeftLeg
			{
				OFFSET 0.430247 -32.302673 3.732800
				CHANNELS 3 Xrotation Yrotation Zrotation
				JOINT LeftFoot
				{
					OFFSET -0.430247 -48.264931 -6.423300
					CHANNELS 3 Xrotation Yrotation Zrotation
					JOINT LeftToeBase
					{
						OFFSET 4.230900 -16.068199 23.438400
						CHANNELS 3 Xrotation Yrotation Zrotation
						JOINT LeftToe_End
						{
							OFFSET 4.510700 0.695400 19.974600
							CHANNELS 3 Xrotation Yrotation Zrotation
							End Site
							{
								OFFSET 0 0 0
							}
						}
					}
				}
			}
		}
	}
	JOINT RightUpLeg_virtual
	{
		OFFSET 0.000000 0.000000 0.000000
		CHANNELS 3 Xrotation Yrotation Zrotation
		JOINT RightUpLeg
		{
			OFFSET -11.333700 -6.187798 -0.413800
			CHANNELS 3 Xrotation Yrotation Zrotation
			JOINT RightLeg
			{
				OFFSET -0.430392 -32.302628 3.733000
				CHANNELS 3 Xrotation Yrotation Zrotation
				JOINT RightFoot
				{
					OFFSET 0.430392 -48.264973 -6.423500
					CHANNELS 3 Xrotation Yrotation Zrotation
					JOINT RightToeBase
					{
						OFFSET -4.230900 -16.068199 23.438400
						CHANNELS 3 Xrotation Yrotation Zrotation
						JOINT RightToe_End
						{
							OFFSET -4.510700 0.695400 19.974600
							CHANNELS 3 Xrotation Yrotation Zrotation
							End Site
							{
								OFFSET 0 0 0
							}
						}
					}
				}
			}
		}
	}
	JOINT Spine_virtual
	{
		OFFSET 0.000000 0.000000 0.000000
		CHANNELS 3 Xrotation Yrotation Zrotation
		JOINT Spine
		{
			OFFSET -0.002400 12.777504 0.315300
			CHANNELS 3 Xrotation Yrotation Zrotation
			JOINT Spine1
			{
				OFFSET -0.002067 5.816869 0.032633
				CHANNELS 3 Xrotation Yrotation Zrotation
				JOINT Spine1_split
				{
					OFFSET -0.002067 5.816869 0.032633
					CHANNELS 3 Xrotation Yrotation Zrotation
					JOINT Spine2
					{
						OFFSET -0.002067 5.816869 0.032633
						CHANNELS 3 Xrotation Yrotation Zrotation
						JOINT Neck_virtual
						{
							OFFSET 0.000000 0.000000 0.000000
							CHANNELS 3 Xrotation Yrotation Zrotation
							JOINT Neck
							{
								OFFSET -0.003700 21.199493 -0.826900
								CHANNELS 3 Xrotation Yrotation Zrotation
								JOINT Head
								{
									OFFSET 0.000000 20.442200 4.834800
									CHANNELS 3 Xrotation Yrotation Zrotation
									JOINT HeadTop_End
									{
										OFFSET 0.000000 34.668396 4.968400
										CHANNELS 3 Xrotation Yrotation Zrotation
										End Site
										{
											OFFSET 0 0 0
										}
									}
								}
							}
						}
						JOINT LeftShoulder_virtual
						{
							OFFSET 0.000000 0.000000 0.000000
							CHANNELS 3 Xrotation Yrotation Zrotation
							JOINT LeftShoulder
							{
								OFFSET 3.288150 8.794197 -1.372250
								CHANNELS 3 Xrotation Yrotation Zrotation
								JOINT LeftShoulder_split
								{
									OFFSET 3.288150 8.794197 -1.372250
									CHANNELS 3 Xrotation Yrotation Zrotation
									JOINT LeftArm
									{
										OFFSET 11.953299 -2.279007 -0.146200
										CHANNELS 3 Xrotation Yrotation Zrotation
										JOINT LeftForeArm
										{
											OFFSET 18.448900 0.000000 0.000000
											CHANNELS 3 Xrotation Yrotation Zrotation
											JOINT LeftHand
											{
												OFFSET 29.527798 0.000000 0.000000
												CHANNELS 3 Xrotation Yrotation Zrotation
												End Site
												{
													OFFSET 0 0 0
												}
											}
										}
									}
								}
							}
						}
						JOINT RightShoulder_virtual
						{
							OFFSET 0.000000 0.000000 0.000000
							CHANNELS 3 Xrotation Yrotation Zrotation
							JOINT RightShoulder
							{
								OFFSET -3.249400 8.794197 -1.372250
								CHANNELS 3 Xrotation Yrotation Zrotation
								JOINT RightShoulder_split
								{
									OFFSET -3.249400 8.794197 -1.372250
									CHANNELS 3 Xrotation Yrotation Zrotation
									JOINT RightArm
									{
										OFFSET -11.953299 -2.279007 -0.146200
										CHANNELS 3 Xrotation Yrotation Zrotation
										JOINT RightForeArm
										{
											OFFSET -18.448900 0.000000 0.000000
											CHANNELS 3 Xrotation Yrotation Zrotation
											JOINT RightHand
											{
												OFFSET -29.527802 0.000000 0.000000
												CHANNELS 3 Xrotation Yrotation Zrotation
												End Site
												{
													OFFSET 0 0 0
												}
											}
										}
									}
								}
							}
						}
					}
				}
			}
		}
	}
}
MOTION
Frames: 4
Frame Time: 0.03333333
-0.539679 90.794708 -1.835621 0.000000 0.000000 0.000000 -8.071578 -46.010005 -3.620768 -40.356620 0.372305 14.338785 36.109165 -7.873134 1.430105 4.555258 -1.656600 -10.126797 -2.166586 -2.368801 2.137676 0.000000 0.000000 0.000000 -8.055595 -42.902211 -3.016770 -11.410983 -12.735428 -17.259985 36.509178 14.894887 -5.097365 -17.758938 -2.777501 5.170559 -0.890113 -0.924856 4.016863 0.000000 0.000000 0.000000 -8.762474 -44.556377 -4.169391 5.408846 -1.649325 0.806755 14.213463 0.250251 0.080037 0.945593 2.413360 -0.132047 0.000000 0.000000 0.000000 12.968994 0.387011 -0.303987 5.647409 -26.660846 -2.242903 -10.970291 -42.341924 0.425997 0.000000 0.000000 0.000000 13.565710 0.539030 -0.320024 0.172089 -5.804392 -7.160618 -4.789691 -4.082153 -0.591591 -1.613430 9.887082 -60.445788 0.703963 -55.960522 -2.455335 0.000000 0.000000 0.000000 14.473938 0.922468 -0.323020 0.896166 5.954203 8.172672 4.544665 2.393832 2.044459 4.526442 -24.838410 70.230081 -7.372669 56.651392 7.037617 0.000000 0.000000 0.000000 
-0.489212 91.086937 -1.955284 0.000000 0.000000 0.000000 -8.617432 -50.206368 -4.123983 -37.800190 0.795947 15.451406 36.207864 -6.164380 1.122806 3.007125 -0.981796 -11.148679 -2.235835 -2.409733 2.120613 0.000000 0.000000 0.000000 -8.468168 -47.189183 -3.438314 -14.360013 -12.047738 -17.679304 37.919335 15.534922 -5.767514 -17.288423 -2.473668 5.423203 -0.207831 -0.324475 3.729618 0.000000 0.000000 0.000000 -9.270358 -48.772639 -4.688178 5.197076 -2.270406 0.810032 14.811289 -1.027511 0.450291 0.836260 2.404055 -0.258530 0.000000 0.000000 0.000000 13.499064 -0.814583 0.058451 5.790296 -26.594472 -2.606953 -10.714351 -43.593932 1.360833 0.000000 0.000000 0.000000 14.171556 -0.683974 -0.010821 0.027786 -7.385065 -6.983182 -4.809322 -3.823144 -0.895701 -0.194223 10.978258 -60.384937 0.488358 -56.947163 -2.452318 0.000000 0.000000 0.000000 15.106124 -0.271979 0.039580 0.928497 4.589203 8.243926 4.899918 1.941255 2.186147 5.006276 -24.220384 70.034212 -6.763506 57.833165 6.749990 0.000000 0.000000 0.000000 
-0.443587 91.341682 -2.021187 0.000000 0.000000 0.000000 -9.177554 -54.342273 -4.649087 -35.136826 1.500322 16.461687 36.116842 -4.402182 0.846937 1.569676 -0.372697 -12.183908 -2.346372 -2.482742 2.165319 0.000000 0.000000 0.000000 -8.863043 -51.415577 -3.852530 -17.005651 -11.232855 -17.873738 39.173420 15.941235 -6.433118 -16.928981 -2.305175 5.853510 0.166382 0.119533 3.485136 0.000000 0.000000 0.000000 -9.807430 -52.917273 -5.254811 4.985253 -2.811673 0.803523 15.350992 -2.189408 0.761974 0.761189 2.345484 -0.343300 0.000000 0.000000 0.000000 13.995509 -1.902577 0.357722 5.668572 -26.437968 -3.076654 -10.280137 -44.673173 2.282283 0.000000 0.000000 0.000000 14.728622 -1.796772 0.244619 -0.120233 -8.811152 -6.751686 -4.799402 -3.526463 -1.124668 0.926359 12.079480 -60.170292 0.081871 -58.041206 -2.566990 0.000000 0.000000 0.000000 15.696511 -1.357301 0.348610 0.997969 3.187868 8.508055 5.332880 1.541523 2.286634 5.528248 -23.951197 69.567799 -6.141175 59.090501 6.522677 0.000000 0.000000 0.000000 
-0.397635 91.576012 -2.030800 0.000000 0.000000 0.000000 -9.713030 -58.380011 -5.182088 -32.406393 2.487792 17.311215 35.802947 -2.567515 0.608636 0.242883 0.173652 -13.213845 -2.430323 -2.579333 2.244651 0.000000 0.000000 0.000000 -9.181373 -55.530394 -4.233807 -19.327842 -10.305453 -17.876488 40.230661 16.132089 -7.062994 -16.640921 -2.263505 6.399794 0.379804 0.426122 3.324982 0.000000 0.000000 0.000000 -10.341649 -56.959577 -5.858037 4.777641 -3.265496 0.787073 15.791233 -3.202952 0.993583 0.718936 2.274598 -0.432512 0.000000 0.000000 0.000000 14.425366 -2.841413 0.573765 5.334578 -26.222846 -3.583016 -9.737183 -45.647315 3.167812 0.000000 0.000000 0.000000 15.207162 -2.767094 0.429222 -0.269116 -10.065988 -6.483606 -4.729936 -3.204352 -1.265318 1.665440 13.064930 -59.787412 -0.464226 -59.085187 -2.771319 0.000000 0.000000 0.000000 16.199940 -2.301491 0.579422 1.117148 1.834915 8.950997 5.801923 1.203597 2.355232 6.051770 -24.001015 68.848792 -5.587062 60.339298 6.405646 0.000000 0.000000 0.000000 
